<svg width="1280" height="800" viewBox="0 0 1280 800" fill="none" xmlns="http://www.w3.org/2000/svg">
  <rect width="1280" height="800" fill="#0B2027"/>
  <rect x="40" y="38" width="1200" height="724" rx="24" fill="#102A31" stroke="#2A6975" stroke-width="2"/>
  <rect x="40" y="38" width="72" height="724" rx="24" fill="#0D242A"/>
  <circle cx="76" cy="98" r="18" fill="#4DB7A7"/>
  <circle cx="76" cy="154" r="18" fill="#EFD7A4"/>
  <circle cx="76" cy="210" r="18" fill="#8FD4C1"/>
  <rect x="134" y="78" width="300" height="644" rx="20" fill="#0D242A" stroke="#2A6975" stroke-width="2"/>
  <rect x="462" y="78" width="742" height="644" rx="20" fill="#0D242A" stroke="#2A6975" stroke-width="2"/>
  <text x="160" y="118" fill="#F5E6BE" font-family="DejaVu Sans" font-size="18" font-weight="700">Foundry Workspace</text>
  <text x="160" y="160" fill="#8FD4C1" font-family="DejaVu Sans" font-size="14">Readiness 85/100</text>
  <rect x="160" y="178" width="230" height="14" rx="7" fill="#16333B"/>
  <rect x="160" y="178" width="196" height="14" rx="7" fill="#4DB7A7"/>
  <text x="160" y="232" fill="#F5E6BE" font-family="DejaVu Sans" font-size="16" font-weight="700">Quick Actions</text>
  <rect x="160" y="250" width="232" height="42" rx="14" fill="#4DB7A7"/>
  <text x="215" y="277" fill="#102A31" font-family="DejaVu Sans" font-size="16" font-weight="700">Analyze workspace</text>
  <rect x="160" y="304" width="232" height="42" rx="14" fill="#F5E6BE"/>
  <text x="219" y="331" fill="#102A31" font-family="DejaVu Sans" font-size="16" font-weight="700">Bootstrap assets</text>
  <rect x="160" y="358" width="232" height="42" rx="14" fill="#8FD4C1"/>
  <text x="213" y="385" fill="#102A31" font-family="DejaVu Sans" font-size="16" font-weight="700">Generate handoff</text>
  <text x="160" y="448" fill="#F5E6BE" font-family="DejaVu Sans" font-size="16" font-weight="700">Detected Assets</text>
  <text x="160" y="482" fill="#EFD7A4" font-family="DejaVu Sans" font-size="14">AGENTS.md</text>
  <text x="160" y="512" fill="#EFD7A4" font-family="DejaVu Sans" font-size="14">.github/copilot-instructions.md</text>
  <text x="160" y="542" fill="#EFD7A4" font-family="DejaVu Sans" font-size="14">.github/agents/planner.agent.md</text>
  <text x="160" y="572" fill="#EFD7A4" font-family="DejaVu Sans" font-size="14">.github/skills/change-safely/SKILL.md</text>
  <text x="488" y="118" fill="#F5E6BE" font-family="DejaVu Sans" font-size="18" font-weight="700">Generated Files</text>
  <rect x="488" y="142" width="690" height="540" rx="16" fill="#0A1E23"/>
  <text x="520" y="182" fill="#8FD4C1" font-family="DejaVu Sans Mono" font-size="18"># AGENTS.md</text>
  <text x="520" y="220" fill="#F5E6BE" font-family="DejaVu Sans Mono" font-size="14">- Repository name: my-app</text>
  <text x="520" y="248" fill="#F5E6BE" font-family="DejaVu Sans Mono" font-size="14">- Primary stack: TypeScript, React, Node.js</text>
  <text x="520" y="276" fill="#F5E6BE" font-family="DejaVu Sans Mono" font-size="14">- Verification commands: pnpm lint, pnpm test</text>
  <text x="520" y="332" fill="#EFD7A4" font-family="DejaVu Sans Mono" font-size="14">## Working Agreement</text>
  <text x="520" y="360" fill="#F5E6BE" font-family="DejaVu Sans Mono" font-size="14">- Prefer small, reviewable changes over broad rewrites.</text>
  <text x="520" y="388" fill="#F5E6BE" font-family="DejaVu Sans Mono" font-size="14">- Read nearby code before changing patterns.</text>
  <text x="520" y="416" fill="#F5E6BE" font-family="DejaVu Sans Mono" font-size="14">- Preserve unrelated user changes.</text>
  <text x="520" y="472" fill="#8FD4C1" font-family="DejaVu Sans Mono" font-size="14">.github/prompts/plan-change.prompt.md</text>
  <text x="520" y="500" fill="#F5E6BE" font-family="DejaVu Sans Mono" font-size="14">description: Produce an implementation plan</text>
  <text x="520" y="528" fill="#F5E6BE" font-family="DejaVu Sans Mono" font-size="14">agent: planner</text>
  <text x="520" y="584" fill="#8FD4C1" font-family="DejaVu Sans Mono" font-size="14">.github/skills/bug-triage/SKILL.md</text>
  <text x="520" y="612" fill="#F5E6BE" font-family="DejaVu Sans Mono" font-size="14">When this skill is used:</text>
  <text x="520" y="640" fill="#F5E6BE" font-family="DejaVu Sans Mono" font-size="14">- identify the symptom</text>
  <text x="520" y="668" fill="#F5E6BE" font-family="DejaVu Sans Mono" font-size="14">- isolate affected files</text>
</svg>
